<svg width="30" height="30" viewBox="0 0 30 30" fill="none" xmlns="http://www.w3.org/2000/svg">
<path fill-rule="evenodd" clip-rule="evenodd" d="M27.75 0H4.56C4.065 0 3.585 0.255 3.315 0.675L1.005 4.125C0.840157 4.36867 0.751404 4.65581 0.75 4.95V24C0.75 24.825 1.425 25.5 2.25 25.5H5.25C6.075 25.5 6.75 26.175 6.75 27V28.5C6.75 29.325 7.425 30 8.25 30H10.44C10.935 30 11.415 29.745 11.685 29.325L13.8 26.16C14.085 25.74 14.55 25.485 15.045 25.485H21.12C21.525 25.485 21.9 25.32 22.185 25.05L28.8 18.435C28.9397 18.2953 29.0501 18.1292 29.1248 17.9463C29.1995 17.7635 29.237 17.5675 29.235 17.37V1.5C29.25 0.675 28.575 0 27.75 0ZM13.185 16.29C13.185 16.77 12.795 17.145 12.33 17.145H10.62C10.3932 17.145 10.1758 17.0549 10.0154 16.8946C9.85508 16.7342 9.765 16.5168 9.765 16.29V7.725C9.765 7.245 10.155 6.87 10.62 6.87H12.33C12.81 6.87 13.185 7.26 13.185 7.725V16.29ZM21.75 16.29C21.75 16.77 21.36 17.145 20.895 17.145H19.185C19.0727 17.145 18.9615 17.1229 18.8578 17.0799C18.7541 17.0369 18.6598 16.974 18.5804 16.8946C18.501 16.8152 18.4381 16.7209 18.3951 16.6172C18.3521 16.5135 18.33 16.4023 18.33 16.29V7.725C18.33 7.245 18.72 6.87 19.185 6.87H20.895C21.375 6.87 21.75 7.26 21.75 7.725V16.29Z" fill="white"/>
</svg>
